<svg xmlns="http://www.w3.org/2000/svg" viewBox="0 0 1200 400" class="qode-banner">
  <defs>
    <!-- Gradients -->
    <linearGradient id="bgGradient" x1="0%" y1="0%" x2="100%" y2="100%">
      <stop offset="0%" stop-color="#6366f1" stop-opacity="0.9"/>
      <stop offset="50%" stop-color="#4f46e5" stop-opacity="0.8"/>
      <stop offset="100%" stop-color="#3730a3" stop-opacity="0.7"/>
    </linearGradient>
    
    <linearGradient id="accentGradient" x1="0%" y1="0%" x2="100%" y2="100%">
      <stop offset="0%" stop-color="#f59e0b"/>
      <stop offset="100%" stop-color="#d97706"/>
    </linearGradient>
    
    <linearGradient id="glowGradient" x1="0%" y1="0%" x2="100%" y2="100%">
      <stop offset="0%" stop-color="#818cf8" stop-opacity="0.6"/>
      <stop offset="100%" stop-color="#c7d2fe" stop-opacity="0.3"/>
    </linearGradient>
    
    <!-- Patterns -->
    <pattern id="codePattern" x="0" y="0" width="20" height="20" patternUnits="userSpaceOnUse">
      <rect x="0" y="0" width="20" height="20" fill="transparent"/>
      <path d="M5 5 L15 15 M15 5 L5 15" stroke="#c7d2fe" stroke-width="0.5" opacity="0.3"/>
    </pattern>
    
    <!-- Glow Effects -->
    <filter id="glow" x="-50%" y="-50%" width="200%" height="200%">
      <feGaussianBlur in="SourceGraphic" stdDeviation="5" result="blur"/>
      <feColorMatrix in="blur" type="matrix" values="1 0 0 0 0  0 1 0 0 0  0 0 1 0 0  0 0 0 20 -8" result="glow"/>
      <feComposite in="SourceGraphic" in2="glow" operator="over"/>
    </filter>
    
    <filter id="softGlow" x="-50%" y="-50%" width="200%" height="200%">
      <feGaussianBlur in="SourceGraphic" stdDeviation="3" result="blur"/>
      <feColorMatrix in="blur" type="matrix" values="1 0 0 0 0  0 1 0 0 0  0 0 1 0 0  0 0 0 15 -6" result="glow"/>
      <feComposite in="SourceGraphic" in2="glow" operator="over"/>
    </filter>
  </defs>
  
  <!-- Background -->
  <rect width="1200" height="400" fill="url(#bgGradient)"/>
  <rect width="1200" height="400" fill="url(#codePattern)"/>
  
  <!-- Abstract Background Elements -->
  <g opacity="0.1">
    <circle cx="200" cy="100" r="80" fill="url(#glowGradient)"/>
    <circle cx="1000" cy="300" r="120" fill="url(#glowGradient)"/>
    <rect x="800" y="50" width="200" height="100" rx="20" fill="url(#glowGradient)" transform="rotate(45 900 100)"/>
  </g>
  
  <!-- Left Side - Web Development Icon -->
  <g transform="translate(150, 200)">
    <g filter="url(#softGlow)">
      <!-- Monitor -->
      <rect x="-60" y="-50" width="120" height="80" rx="10" fill="#1f2937" opacity="0.9"/>
      <rect x="-50" y="-40" width="100" height="60" rx="5" fill="#4f46e5"/>
      
      <!-- Code Lines -->
      <g fill="#f8fafc" font-family="monospace" font-size="6" opacity="0.9">
        <text x="-45" y="-30">&lt;div&gt;</text>
        <text x="-40" y="-20">&lt;h1&gt;Hello World&lt;/h1&gt;</text>
        <text x="-40" y="-10">&lt;p&gt;Creative Code&lt;/p&gt;</text>
        <text x="-45" y="0">&lt;/div&gt;</text>
      </g>
      
      <!-- Stand -->
      <rect x="-10" y="30" width="20" height="30" fill="#374151"/>
      <rect x="-20" y="60" width="40" height="5" fill="#4b5563"/>
    </g>
  </g>
  
  <!-- Center - Design Elements -->
  <g transform="translate(600, 200)">
    <!-- Design Tools -->
    <g filter="url(#softGlow)">
      <!-- Color Palette -->
      <circle cx="-80" cy="-20" r="25" fill="#f59e0b"/>
      <circle cx="-60" cy="0" r="25" fill="#6366f1"/>
      <circle cx="-40" cy="-20" r="25" fill="#10b981"/>
      
      <!-- Pen Tool -->
      <g transform="translate(40, -10)">
        <path d="M0 -20 L8 -12 L20 0 L0 20 L-20 0 L-8 -12 Z" fill="#f8fafc"/>
        <circle cx="0" cy="-15" r="3" fill="#f59e0b"/>
      </g>
      
      <!-- Layout Grid -->
      <g transform="translate(80, 0)" stroke="#f8fafc" stroke-width="1" opacity="0.8">
        <rect x="-15" y="-15" width="30" height="30" fill="none"/>
        <line x1="0" y1="-15" x2="0" y2="15"/>
        <line x1="-15" y1="0" x2="15" y2="0"/>
      </g>
    </g>
  </g>
  
  <!-- Right Side - Game Development Icon -->
  <g transform="translate(1050, 200)">
    <g filter="url(#softGlow)">
      <!-- Game Controller -->
      <rect x="-50" y="-30" width="100" height="60" rx="15" fill="#1f2937"/>
      
      <!-- Screen -->
      <rect x="-30" y="-15" width="60" height="30" rx="5" fill="#4f46e5"/>
      
      <!-- D-pad -->
      <g fill="#6b7280">
        <rect x="-40" y="5" width="10" height="10"/>
        <rect x="-40" y="-5" width="10" height="10"/>
        <rect x="-30" y="-5" width="10" height="10"/>
        <rect x="-50" y="-5" width="10" height="10"/>
      </g>
      
      <!-- Buttons -->
      <g fill="#f59e0b">
        <circle cx="25" cy="-10" r="6"/>
        <circle cx="35" cy="0" r="6"/>
      </g>
      
      <!-- Joysticks -->
      <g fill="#9ca3af">
        <circle cx="20" cy="15" r="8"/>
        <circle cx="-20" cy="15" r="8"/>
      </g>
    </g>
  </g>
  
  <!-- Main Title -->
  <g text-anchor="middle" filter="url(#glow)">
    <text x="600" y="120" font-family="'Arial Black', sans-serif" font-size="48" fill="#f8fafc">
      QODE STUDIO
    </text>
  </g>
  
  <!-- Subtitle -->
  <g text-anchor="middle" font-family="Arial, sans-serif">
    <text x="600" y="160" font-size="24" fill="#e5e7eb" opacity="0.9">
      Web Development • UI/UX Design • Game Development
    </text>
  </g>
  
  <!-- Accent Elements -->
  <g opacity="0.8">
    <!-- Floating Code Brackets -->
    <text x="300" y="350" font-family="monospace" font-size="20" fill="url(#accentGradient)" opacity="0.7">{</text>
    <text x="900" y="350" font-family="monospace" font-size="20" fill="url(#accentGradient)" opacity="0.7">}</text>
    
    <!-- Dots -->
    <circle cx="250" cy="350" r="3" fill="url(#accentGradient)"/>
    <circle cx="950" cy="350" r="3" fill="url(#accentGradient)"/>
  </g>
  
  <!-- Animated Elements (CSS will handle animation) -->
  <g class="floating-elements">
    <circle cx="100" cy="350" r="4" fill="#f59e0b" opacity="0.6"/>
    <circle cx="1100" cy="50" r="3" fill="#6366f1" opacity="0.6"/>
    <rect x="50" y="50" width="6" height="6" fill="#10b981" opacity="0.6" transform="rotate(45 53 53)"/>
    <rect x="1150" y="350" width="5" height="5" fill="#f59e0b" opacity="0.6" transform="rotate(45 1152.5 352.5)"/>
  </g>
</svg>