<svg xmlns="http://www.w3.org/2000/svg" viewBox="0 0 400 120" width="400" height="120" class="qode-logo">
  <defs>
    <!-- Gradients -->
    <linearGradient id="primaryGradient" x1="0%" y1="0%" x2="100%" y2="100%">
      <stop offset="0%" stop-color="#6366f1"/>
      <stop offset="100%" stop-color="#4f46e5"/>
    </linearGradient>
    
    <linearGradient id="accentGradient" x1="0%" y1="0%" x2="100%" y2="100%">
      <stop offset="0%" stop-color="#f59e0b"/>
      <stop offset="100%" stop-color="#d97706"/>
    </linearGradient>
    
    <!-- Glow Effects -->
    <filter id="logoGlow" x="-50%" y="-50%" width="200%" height="200%">
      <feGaussianBlur in="SourceGraphic" stdDeviation="3" result="blur"/>
      <feColorMatrix in="blur" type="matrix" values="1 0 0 0 0  0 1 0 0 0  0 0 1 0 0  0 0 0 20 -8" result="glow"/>
      <feComposite in="SourceGraphic" in2="glow" operator="over"/>
    </filter>
  </defs>
  
  <!-- Logo Symbol Container -->
  <g transform="translate(20, 20)">
    <!-- Main Q Shape with Integrated Elements -->
    <g filter="url(#logoGlow)">
      <!-- Outer Circle -->
      <circle cx="40" cy="40" r="38" fill="url(#primaryGradient)" stroke="#1f2937" stroke-width="2"/>
      
      <!-- Inner Cutout -->
      <circle cx="40" cy="40" r="28" fill="white"/>
      
      <!-- Code Bracket Integration (Web Development) -->
      <path d="M 25,30 Q 30,25 35,30 L 35,35 Q 30,30 25,35 Z" fill="#6366f1"/>
      <path d="M 55,30 Q 50,25 45,30 L 45,35 Q 50,30 55,35 Z" fill="#6366f1"/>
      
      <!-- Design Brush Stroke (UI/UX Design) -->
      <path d="M 30,45 C 35,40 45,40 50,45 C 45,50 35,50 30,45 Z" fill="#f59e0b" opacity="0.9"/>
      
      <!-- Game Controller D-pad (Game Development) -->
      <rect x="35" y="50" width="4" height="4" fill="#10b981" transform="rotate(45 37 52)"/>
      <rect x="41" y="50" width="4" height="4" fill="#10b981" transform="rotate(45 43 52)"/>
      <rect x="35" y="56" width="4" height="4" fill="#10b981" transform="rotate(45 37 58)"/>
      <rect x="41" y="56" width="4" height="4" fill="#10b981" transform="rotate(45 43 58)"/>
      
      <!-- Q Tail - Dynamic Curve -->
      <path d="M 55,40 C 65,35 75,45 70,55 C 65,65 50,60 45,50" 
            fill="none" 
            stroke="url(#accentGradient)" 
            stroke-width="4" 
            stroke-linecap="round"/>
    </g>
    
    <!-- Connecting Elements -->
    <g opacity="0.8">
      <!-- Code Dots -->
      <circle cx="65" cy="25" r="2" fill="#6366f1"/>
      <circle cx="70" cy="30" r="1.5" fill="#f59e0b"/>
      <circle cx="75" cy="20" r="1.5" fill="#10b981"/>
    </g>
  </g>
  
  <!-- QODE STUDIO Text -->
  <g transform="translate(90, 35)">
    <!-- QODE Text -->
    <text x="0" y="30" font-family="'Arial Black', 'Segoe UI', sans-serif" font-size="36" font-weight="900" fill="url(#primaryGradient)">
      QODE
    </text>
    
    <!-- STUDIO Text -->
    <text x="0" y="65" font-family="'Segoe UI', Arial, sans-serif" font-size="24" font-weight="600" fill="#1f2937">
      STUDIO
    </text>
    
    <!-- Tagline -->
    <text x="0" y="85" font-family="'Segoe UI', Arial, sans-serif" font-size="12" font-weight="400" fill="#6b7280" opacity="0.8">
      Web • Design • Games
    </text>
  </g>
  
  <!-- Accent Line -->
  <line x1="90" y1="70" x2="220" y2="70" stroke="url(#accentGradient)" stroke-width="3" stroke-linecap="round"/>
</svg>